<svg xmlns="http://www.w3.org/2000/svg" preserveAspectRatio="xMidYMid meet" viewBox="0 0 172 24" style="display: block;"><path d="M6.014 12.574c0 3.675.92 5 4.789 5a7.424 7.424 0 003.464-.576 2.821 2.821 0 001.3-2.7h-3.045c-.032 1.047-.742 1.154-1.719 1.154-1.41 0-1.685-.573-1.685-2.326v-.075h6.453v-.474c0-4.01-1.085-5.015-4.768-5.015-3.944-.003-4.789 1.224-4.789 5.012zm4.732-2.894c1.118 0 1.72.11 1.72 1.645v.075H9.118c.037-1.313.304-1.72 1.628-1.72zM48.276 2H7.724a7.445 7.445 0 00-6.391 3.473C.241 7.368 0 10.455 0 12.5s.241 5.132 1.333 7.027A7.445 7.445 0 007.724 23h40.552a7.444 7.444 0 006.39-3.473C55.758 17.632 56 14.545 56 12.5s-.242-5.131-1.334-7.026A7.444 7.444 0 0048.276 2zM29.152 21.153H8.24a6.7 6.7 0 01-4.5-1.853c-1.556-1.674-1.9-4.3-1.9-6.8s.34-5.125 1.9-6.8a6.7 6.7 0 014.5-1.857h20.912zm12.013-8.221h-6.453v.107c0 1.761.278 2.362 1.715 2.362.966 0 1.7-.108 1.75-1.157h2.987a2.785 2.785 0 01-1.289 2.643 7.368 7.368 0 01-3.448.574c-3.849 0-4.757-1.306-4.757-4.972 0-3.78.833-4.99 4.757-4.99 3.666 0 4.738.992 4.738 4.99zm9.582-3.157H48.48v7.678h-3.1V9.775h-2.27V7.538h7.642zm-12.624 1.48v.106h-3.414c.039-1.34.294-1.783 1.662-1.783 1.129 0 1.752.122 1.752 1.677zm-13.93 3.421c0-.51-.149-.791-.47-.931a3.824 3.824 0 00-1.308-.13c-4.111 0-4.788-.916-4.788-2.876 0-3.118 2.012-3.18 4.788-3.18 1.85 0 4.315.032 4.315 2.384v.4H23.8c-.141-.777-.764-.833-1.389-.833-1.7 0-1.778.211-1.778.871 0 .555.1.907 1.777.944 3.379.076 4.79.269 4.79 2.972 0 2.837-2.172 3.274-4.789 3.274-.641 0-1.265 0-1.839-.041-1.9-.151-2.925-.859-2.949-3.025h3.106c.037 1.1.867 1.117 1.682 1.117 1.47-.001 1.782-.093 1.782-.946zM56 .36A1.64 1.64 0 1154.36 2 1.642 1.642 0 0156 .36M56 0a2 2 0 102 2 2 2 0 00-2-2zm.014 2.266H55.7V3h-.41V1h.739a.839.839 0 01.545.157.543.543 0 01.191.444.62.62 0 01-.088.34.62.62 0 01-.275.216l.454.815V3h-.44zm-.314-.332h.331a.335.335 0 00.239-.079.281.281 0 00.085-.216.3.3 0 00-.08-.222.337.337 0 00-.246-.08H55.7z M71.028 4.049h6.365c3.478 0 5.744 1.956 5.744 5.465 0 3.229-2.235 5.681-6.986 5.681h-2.732V21h-2.391zm5.279 9.128c2.546 0 4.284-1.086 4.284-3.571 0-2.42-1.18-3.539-3.725-3.539h-3.447v7.11zM85.407 4.049h6.241c3.446 0 5.712 1.8 5.712 5.31a5.03 5.03 0 01-3.415 4.9L99.564 21H96.4l-4.905-6.178c-.249 0-.777.031-1.088.031h-2.578V21h-2.422zm5.122 8.818c2.547 0 4.285-.9 4.285-3.384 0-2.391-1.179-3.416-3.694-3.416h-3.291v6.8zM107.991 21.218c-5.4 0-8.507-3.57-8.507-8.724 0-5.371 3.632-8.693 8.942-8.693 5.619 0 8.475 3.788 8.475 8.724-.001 5.247-3.352 8.693-8.91 8.693zm.218-15.368c-4.192 0-6.3 2.856-6.3 6.613 0 3.694 2.05 6.737 6.148 6.737 4.347 0 6.395-2.857 6.395-6.675s-2.208-6.675-6.243-6.675zM123.939 6.1V21h-2.391V6.1h-5.3V4.049h13V6.1zM130.936 21V4.049H141.3v1.987h-7.943v5.434h7.416v2.018h-7.416v5.5h8.5V21zM151.448 21.311c-5.713 0-8.972-3.632-8.972-8.662 0-5.34 3.228-8.879 8.879-8.879a13.087 13.087 0 015.185.962l-.683 1.956a13.656 13.656 0 00-4.439-.776c-3.447-.031-6.459 1.832-6.459 6.489 0 4.812 3.136 6.83 6.924 6.83a15.246 15.246 0 004.129-.683c.062.249.528 1.677.621 1.926a14.142 14.142 0 01-5.185.837zM165.405 6.1V21h-2.391V6.1h-5.3V4.049h13V6.1z" fill="currentcolor"/></svg>