<svg xmlns="http://www.w3.org/2000/svg" preserveAspectRatio="xMidYMid meet" viewBox="0 0 16 16" style="display: block;"><path d="m 11.185,8.385 0,-0.315 C 11.185,5.41 10.45,4.71 8,4.71 c -2.625,0 -3.185,0.805 -3.185,3.36 0,2.45 0.63,3.325 3.185,3.325 0.945,0 1.75,-0.07 2.31,-0.385 0.525,-0.315 0.875,-0.84 0.875,-1.785 l -2.03,0 C 9.12,9.925 8.665,9.995 8,9.995 7.055,9.995 6.88,9.61 6.88,8.455 l 0,-0.035 4.305,0 z M 6.88,7.265 C 6.915,6.39 7.09,6.11 7.965,6.11 8.7,6.11 9.12,6.18 9.12,7.195 l 0,0.035 -2.24,0 z" fill="currentcolor"/></svg>