<?xml version="1.0" standalone="no"?>
<!DOCTYPE svg PUBLIC "-//W3C//DTD SVG 20010904//EN"
 "http://www.w3.org/TR/2001/REC-SVG-20010904/DTD/svg10.dtd">
<svg version="1.0" xmlns="http://www.w3.org/2000/svg"
 width="303.000000pt" height="302.000000pt" viewBox="0 0 303.000000 302.000000"
 preserveAspectRatio="xMidYMid meet">

<g transform="translate(0.000000,302.000000) scale(0.100000,-0.100000)"
fill="#000000" stroke="none">
<path d="M434 2945 c-41 -44 -49 -83 -35 -174 12 -79 8 -94 -50 -174 -35 -48
-36 -67 -8 -166 19 -66 20 -82 10 -123 -9 -32 -9 -57 -3 -82 9 -31 7 -44 -19
-94 -39 -76 -47 -86 -95 -110 -121 -62 -125 -154 -19 -382 30 -63 59 -135 64
-160 15 -63 13 -211 -3 -300 -17 -97 -95 -359 -141 -475 -19 -49 -35 -91 -35
-92 0 -2 641 -3 1425 -3 861 0 1425 4 1425 9 0 21 -64 190 -91 241 -16 30 -47
78 -69 105 -51 64 -70 105 -70 152 0 82 -12 113 -61 167 -47 52 -48 53 -43
107 5 50 2 62 -46 159 -49 99 -125 216 -232 359 -48 64 -53 76 -83 206 -25
108 -53 165 -80 165 -34 0 -62 -29 -85 -90 -12 -30 -39 -77 -59 -105 -56 -73
-55 -71 -61 -186 l-5 -105 -83 -82 c-89 -88 -107 -95 -162 -67 -16 8 -44 35
-63 59 -19 25 -53 60 -77 78 -67 51 -79 74 -86 160 -5 58 -1 112 16 218 29
176 26 193 -44 201 -37 4 -53 11 -68 32 -14 19 -29 27 -49 27 -34 0 -44 18
-54 91 -4 32 -14 54 -34 73 -15 15 -104 60 -197 100 -208 91 -241 109 -329
186 -90 78 -154 110 -218 110 -44 0 -54 -4 -83 -35z m163 -21 c29 -14 78 -49
111 -77 32 -29 71 -61 85 -72 l26 -20 -64 -260 c-104 -415 -141 -616 -124
-662 7 -18 16 -23 46 -23 60 0 166 -26 220 -53 95 -49 166 -151 193 -282 17
-79 17 -276 1 -345 -7 -30 -33 -97 -58 -149 -59 -123 -169 -239 -283 -297 -73
-37 -78 -38 -200 -42 -141 -4 -194 5 -240 44 -38 32 -57 68 -70 132 -10 44 -7
62 24 173 47 170 56 225 56 353 -1 142 -9 176 -76 318 -34 72 -60 142 -67 182
-10 61 -9 68 9 93 12 16 44 41 72 57 45 26 57 41 93 110 38 73 41 82 32 121
-5 23 -6 50 -2 61 14 34 9 98 -11 169 -11 38 -20 72 -20 75 0 3 20 37 45 74
48 74 52 94 35 188 -12 62 -3 98 32 136 28 29 71 28 135 -4z m734 -534 c15 0
35 -12 51 -30 21 -24 34 -30 66 -30 25 0 42 -5 45 -14 6 -15 -2 -76 -23 -199
-7 -38 -10 -113 -8 -167 4 -112 13 -130 88 -188 24 -18 61 -55 83 -83 44 -56
81 -79 127 -79 20 0 30 -5 30 -16 0 -8 -36 -220 -80 -471 -44 -252 -80 -461
-80 -465 0 -4 -77 -8 -171 -8 l-171 0 5 23 c17 79 140 713 156 811 32 183 26
236 -25 236 -22 0 -74 -42 -74 -59 0 -4 -43 -231 -95 -504 -52 -274 -95 -499
-95 -502 0 -3 -85 -5 -190 -5 -104 0 -190 4 -190 8 0 5 25 26 56 47 118 82
222 224 271 370 24 72 27 95 27 230 0 214 -36 333 -128 424 l-43 42 23 117
c57 297 114 416 248 514 35 25 41 27 56 13 9 -8 28 -15 41 -15z m873 -222 c14
-46 30 -108 36 -139 9 -47 28 -80 121 -210 67 -93 134 -201 170 -273 56 -113
59 -121 53 -172 l-7 -54 50 -53 c49 -51 50 -54 57 -130 9 -97 14 -110 65 -172
47 -57 101 -155 136 -250 14 -36 25 -68 25 -70 0 -3 -65 -4 -145 -3 l-146 3
-175 405 c-96 223 -207 479 -246 568 l-71 164 -68 -229 c-38 -125 -68 -234
-69 -240 0 -9 21 -13 73 -13 185 0 285 -86 303 -261 16 -166 -58 -313 -191
-375 -44 -21 -65 -24 -173 -24 -132 0 -172 11 -219 62 -31 33 -62 107 -63 148
-1 19 30 204 67 410 l68 375 61 60 c33 33 66 70 72 82 7 12 12 58 12 102 0 94
8 118 61 189 22 29 47 72 55 95 17 49 41 87 54 87 5 0 21 -37 34 -82z"/>
<path d="M570 1358 c-51 -35 -80 -98 -80 -176 0 -114 52 -182 141 -182 42 0
54 5 89 36 72 65 89 185 39 273 -40 71 -124 93 -189 49z"/>
<path d="M1993 1104 c-120 -59 -92 -289 35 -289 21 0 51 9 66 19 34 21 66 88
66 136 0 51 -33 116 -69 134 -38 20 -57 20 -98 0z"/>
<path d="M90 451 c0 -32 -66 -381 -80 -423 l-9 -28 80 0 79 0 0 38 c1 68 17
113 56 153 21 22 41 39 45 39 3 0 21 -52 39 -115 l34 -115 122 0 122 0 10 29
c5 15 22 47 36 70 l26 41 105 0 c57 0 106 -4 109 -9 4 -5 9 -37 12 -70 l7 -61
84 0 c77 0 84 2 78 18 -4 9 -33 117 -64 240 l-56 222 -77 0 c-61 0 -76 -3 -72
-13 3 -8 -50 -101 -118 -208 -150 -237 -154 -243 -167 -235 -10 7 -101 278
-101 302 0 12 99 109 140 136 l25 17 -51 0 c-45 1 -56 -3 -90 -35 -92 -84
-214 -185 -214 -176 0 21 31 168 40 190 9 22 9 22 -70 22 l-80 0 0 -29z m735
-161 c10 -44 16 -82 13 -85 -3 -3 -37 -5 -76 -3 l-71 3 51 83 c28 45 54 82 58
82 4 0 15 -36 25 -80z"/>
<path d="M1063 448 l-10 -33 74 3 c73 4 74 3 68 -20 -3 -13 -20 -99 -39 -193
-18 -94 -37 -178 -41 -187 -6 -16 1 -18 75 -18 44 0 79 4 76 8 -4 7 57 350 70
395 5 16 15 18 75 15 l69 -3 0 33 0 32 -203 0 -204 0 -10 -32z"/>
<path d="M1550 476 c0 -18 -83 -432 -90 -451 l-10 -25 80 0 80 0 0 28 c0 33
76 427 85 442 4 6 -21 10 -69 10 -42 0 -76 -2 -76 -4z"/>
<path d="M1747 464 c3 -9 25 -116 47 -238 l42 -221 64 -3 65 -2 99 177 c55 98
117 206 137 241 l38 62 -45 0 c-27 0 -44 -5 -44 -12 0 -6 -41 -88 -91 -181
-60 -109 -95 -164 -99 -156 -12 23 -62 328 -55 339 4 6 -24 10 -79 10 -75 0
-85 -2 -79 -16z"/>
<path d="M2280 451 c0 -34 -65 -382 -80 -423 l-9 -28 80 0 79 0 0 29 c0 34 65
382 80 424 l9 27 -80 0 -79 0 0 -29z"/>
<path d="M2530 461 c0 -25 -76 -420 -85 -443 -6 -16 0 -18 68 -18 l74 0 13 77
c12 71 17 81 54 115 23 20 43 37 46 38 3 0 11 -21 18 -48 7 -26 22 -77 33
-114 l20 -68 86 0 c75 0 84 2 73 15 -7 8 -34 83 -61 167 l-48 152 61 55 c34
31 73 64 87 73 l26 18 -53 0 -53 0 -120 -106 c-66 -59 -122 -104 -125 -101 -5
4 20 150 32 190 5 15 -3 17 -70 17 -68 0 -76 -2 -76 -19z"/>
</g>
</svg>
