<svg class="WUG-Svg WUG-Svg-Logo" xmlns="http://www.w3.org/2000/svg" xmlns:svg="http://www.w3.org/2000/svg" viewBox="0 0 270 30" preserveAspectRatio="xMinYMin meet"><path fill="#4b4e52" d="M141.552 7.249l4.042 14.82 3.988-14.82h1.403l-4.687 17.232h-1.294l-4.067-14.652-4.042 14.676h-1.265l-4.713-17.231h1.428l3.988 14.818 4.042-14.818zm11.003-1.009h1.403v7.773a4.849 4.849 0 013.983-2.244c2.836 0 4.323 1.822 4.323 4.46v8.252h-1.374v-8.054c0-1.935-.985-3.368-3.2-3.368a4.165 4.165 0 00-3.732 2.68v8.728h-1.403zm19.462 9.595c0-1.683-1.181-2.776-3.086-2.776a6.356 6.356 0 00-3.624 1.093v-1.344a7.062 7.062 0 013.761-1.04c2.64 0 4.299 1.512 4.299 3.984v8.729h-1.35v-1.177a4.824 4.824 0 01-3.446 1.374c-2.525 0-4.603-1.478-4.603-3.845 0-2.3 2.078-3.815 4.657-3.815a4.922 4.922 0 013.398 1.319zm0 4.21c-.393-1.064-1.797-1.852-3.313-1.852-1.768 0-3.398.871-3.398 2.64 0 1.767 1.63 2.667 3.398 2.667 1.517 0 2.92-.788 3.313-1.856zm6.591 4.436h-1.397V13.226h-2.664V12.02h2.664V8.844h1.403v3.2h2.953v1.182h-2.953zm3.876-2.497a5.83 5.83 0 003.987 1.516c1.541 0 2.955-.62 2.955-2.22 0-1.064-.7-1.713-1.97-2.161l-2.077-.759c-1.684-.615-2.89-1.403-2.89-3.308 0-2.107 1.851-3.283 4.125-3.283a6.282 6.282 0 013.649 1.122v1.512A5.585 5.585 0 00186.614 13c-1.477 0-2.752.704-2.752 2.023 0 1.177.788 1.63 2.137 2.131l2.16.813c1.709.591 2.64 1.66 2.64 3.26 0 2.244-1.97 3.505-4.381 3.505a6.544 6.544 0 01-3.939-1.232zm10.092-4.278V7.25h1.432v10.245c0 4.043 2.185 5.908 5.164 5.908 2.979 0 5.189-1.876 5.189-5.908V7.25h1.433v10.457c0 4.746-2.92 7.045-6.623 7.045-3.702 0-6.595-2.319-6.595-7.045zm17.457 11.545h-1.403V12.019h1.403v1.852a4.824 4.824 0 013.874-2.103c3.678 0 5.445 3.057 5.445 6.484s-1.767 6.479-5.445 6.479a4.824 4.824 0 01-3.874-2.103zm0-8.281c.842 1.6 2.215 2.461 3.732 2.461 2.639 0 4.184-2.19 4.184-5.189 0-2.997-1.546-5.193-4.184-5.193-1.517 0-2.89.871-3.732 2.461zm11.412-7.941a1.84 1.84 0 01-1.865-1.817 1.84 1.84 0 011.816-1.865 1.84 1.84 0 011.865 1.816v.025a1.802 1.802 0 01-1.762 1.84zm0-3.368a1.526 1.526 0 101.477 1.575v-.048a1.477 1.477 0 00-1.427-1.525zm-.211 1.87v.612h-.542v-1.93h.9a.644.644 0 01.714.675.56.56 0 01-.369.58l.443.675h-.606l-.369-.611zm.285-.865h-.301v.433h.3c.163 0 .252-.078.252-.211a.222.222 0 00-.251-.222zm17.29 11.205v-4.923h-4.352v-1.211h5.671v6.582c-1.6 1.88-3.844 2.413-5.907 2.413-4.49 0-7.832-3.447-7.832-8.862s3.446-8.862 8-8.862a8.025 8.025 0 015.052 1.654v1.6a7.241 7.241 0 00-5.067-1.91c-3.844 0-6.537 2.866-6.537 7.523s2.639 7.547 6.4 7.547a6.477 6.477 0 004.572-1.55zm8.729 2.86c-3.284 0-5.5-2.639-5.5-6.478 0-3.84 2.216-6.484 5.5-6.484 3.283 0 5.529 2.634 5.529 6.484s-2.216 6.479-5.529 6.479zm0-11.732c-2.461 0-4.096 2.108-4.096 5.253 0 3.146 1.624 5.247 4.096 5.247 2.471 0 4.125-2.107 4.125-5.247 0-3.14-1.63-5.253-4.125-5.253zm9.064 11.482h-1.403V6.24h1.403zm11.45-1.852a4.825 4.825 0 01-3.874 2.103c-3.678 0-5.444-3.028-5.444-6.48 0-3.45 1.767-6.483 5.444-6.483a4.825 4.825 0 013.875 2.102v-7.63h1.372v18.24h-1.372zm0-7.104a4.275 4.275 0 00-3.761-2.462c-2.614 0-4.155 2.19-4.155 5.194 0 3.003 1.542 5.188 4.155 5.188a4.27 4.27 0 003.762-2.46z"/><path fill="#5ce500" d="M25.272 20.167a.985.985 0 01-.443.768l-6.144 3.545V10.764L6.795 3.92l6.16-3.554a.98.98 0 01.886 0l11.431 6.592zm-9.24-7.877L7.897 7.59a.984.984 0 00-.886 0l-5.494 3.175 8.576 4.973v9.905l5.49-3.17a.987.987 0 00.443-.768zM1.518 20.66l5.907 3.446v-6.863z"/><path fill="#4b4e52" d="M38.378 6.953h-6.494V24.48h2.87v-6.893h3.623c3.938 0 6.08-1.92 6.08-5.415 0-1.58-.595-5.253-6.105-5.253m3.187 5.298c0 1.969-1.024 2.786-3.54 2.786h-3.245V9.538h3.624c2.127 0 3.16.891 3.16 2.713m11.467-.542l.22.104-.49 2.59-.34-.105a2.803 2.803 0 00-.828-.122c-2.683 0-2.9 2.136-2.9 4.716v5.588H46.01V11.606h2.496v1.555a3.445 3.445 0 012.58-1.718 3.624 3.624 0 011.92.266m6.543-.36c-2.093 0-3.767.8-4.85 2.305a7.74 7.74 0 00-1.3 4.431c0 4.067 2.412 6.696 6.15 6.696 4.543 0 6.154-3.659 6.154-6.79A7.205 7.205 0 0064.2 13.39a5.826 5.826 0 00-4.652-2.02m0 11.039c-2.078 0-3.373-1.66-3.373-4.323 0-2.663 1.295-4.367 3.373-4.367 2.077 0 3.397 1.698 3.397 4.323 0 2.624-1.3 4.367-3.397 4.367M88.047 11.73l.216.103-.491 2.59-.335-.104a2.855 2.855 0 00-.831-.124c-2.679 0-2.9 2.138-2.9 4.716v5.59h-2.658V11.605h2.496v1.556a3.443 3.443 0 012.589-1.718 3.624 3.624 0 011.92.266m9.55 8.644l-.049.138a2.827 2.827 0 01-2.899 1.916c-2.009 0-3.304-1.335-3.446-3.506h9.103l.033-.25a7.76 7.76 0 00.03-1.025v-.231c-.133-3.604-2.461-6.027-5.843-6.027a5.547 5.547 0 00-4.658 2.236 7.69 7.69 0 00-1.373 4.485c0 3.978 2.461 6.651 6.15 6.651 2.85 0 4.809-1.447 5.524-4.076l.083-.31h-2.655zm-6.3-3.761c.22-1.782 1.442-2.915 3.18-2.915a3.02 3.02 0 013.11 2.915zm-15.1-3.904a4.54 4.54 0 00-3.447-1.34c-3.9 0-5.676 3.447-5.676 6.623 0 3.274 1.757 6.578 5.676 6.578a4.566 4.566 0 003.324-1.35c0 .566 0 1.108-.04 1.34-.147 2.12-1.167 3.11-3.21 3.11-1.113 0-2.393-.392-2.639-1.476l-.054-.246h-2.62l.046.35c.27 2.27 2.264 3.682 5.193 3.682 2.575 0 4.431-.985 5.293-2.802a8.98 8.98 0 00.7-3.85V11.607h-2.522zm-3.255 9.487c-.93 0-3.087-.424-3.087-4.322 0-2.56 1.211-4.156 3.156-4.156 1.507 0 3.116 1.094 3.116 4.156 0 2.702-1.19 4.322-3.185 4.322m39.71-1.57c0 2.042-1.698 4.11-5.494 4.11-3.357 0-5.356-1.453-5.623-4.09l-.029-.271h2.619l.04.197c.32 1.585 1.83 1.915 3.042 1.915 1.33 0 2.747-.427 2.747-1.624 0-.61-.399-1.04-1.177-1.285a82.568 82.568 0 00-1.634-.462c-1.034-.291-2.103-.591-2.762-.818-1.635-.586-2.57-1.723-2.57-3.126 0-2.595 2.525-3.756 5.027-3.756 3.347 0 5.08 1.26 5.297 3.854l.025.266h-2.58l-.04-.206c-.256-1.477-1.742-1.713-2.605-1.713-.742 0-2.461.133-2.461 1.364 0 .56.492.985 1.477 1.26.296.083.734.192 1.236.325 1.053.27 2.359.61 3.019.837 1.64.577 2.461 1.664 2.461 3.224m12.283-.002c0 2.043-1.699 4.112-5.494 4.112-3.358 0-5.357-1.454-5.623-4.092l-.03-.27h2.62l.039.197c.32 1.585 1.831 1.915 3.042 1.915 1.33 0 2.747-.428 2.747-1.624 0-.61-.398-1.04-1.176-1.285-.463-.138-1.034-.296-1.635-.463-1.033-.29-2.102-.59-2.762-.817-1.634-.586-2.57-1.724-2.57-3.126 0-2.595 2.526-3.756 5.027-3.756 3.348 0 5.08 1.26 5.297 3.854l.025.266h-2.58l-.035-.206c-.26-1.477-1.742-1.713-2.609-1.713-.743 0-2.461.133-2.461 1.364 0 .56.492.985 1.477 1.26.295.083.734.192 1.24.325 1.05.27 2.353.61 3.014.837 1.64.577 2.46 1.664 2.46 3.224m2.075-7.618a1.837 1.837 0 111.816-1.856v.02a1.801 1.801 0 01-1.816 1.836m0-3.357a1.526 1.526 0 101.477 1.575v-.053a1.477 1.477 0 00-1.432-1.52c-.015-.002-.03-.002-.045-.002m-.208 1.866v.61h-.54v-1.925h.9a.639.639 0 01.708.67.56.56 0 01-.37.58l.44.675h-.601l-.38-.61h-.157zm.301-.862h-.3v.428h.3c.158 0 .247-.078.247-.211a.218.218 0 00-.247-.217"/></svg>